<?xml version="1.0" encoding="utf-8"?>
<!-- Generator: Adobe Illustrator 22.1.0, SVG Export Plug-In . SVG Version: 6.00 Build 0)  -->
<svg version="1.1" id="Layer_1" xmlns="http://www.w3.org/2000/svg" xmlns:xlink="http://www.w3.org/1999/xlink" x="0px" y="0px"
	 viewBox="0 0 188.4 158.1" style="enable-background:new 0 0 188.4 158.1;" xml:space="preserve">
<style type="text/css">
	.st0{fill:#FF5A5F;}
	.st1{fill:#008489;}
	.st2{fill:#058CFD;}
</style>
<g>
	<path class="st0" d="M138.2,55c0.2,0.2,0.5,0.5,0.7,0.7c0,0.4,0.2,0.4,0.5,0.5c0,0,0,0,0,0c0,0.3,0.2,0.5,0.5,0.5c0,0,0,0,0,0
		c1.3,2.8,3.3,5.2,4.3,8.2c2.1,5.3,3.1,10.8,3.1,16.5c0.1,22.1,0.1,44.1,0.1,66.2c0,0.7,0.1,1.5-0.3,2.2c0,0,0.1,0,0.1,0
		c-11.7-4-22.8-9.6-33.6-15.7c-1.3-0.7-1.6-1.6-1.6-3c0-12.5,0-25,0-37.5c0-2.9-0.5-5.8-1.1-8.6c-1.4-5.9-5-9.5-10.9-10.6
		c-4.3-0.8-8.6-0.9-12.7,0.8c-7,3-9.9,8.9-11.3,15.9c-0.9,4.7-0.5,9.4-0.7,14.2c-1.2,0.2-1.6-0.8-2.3-1.4
		C61.7,93.6,51.2,82.5,41.8,70.3c-0.5-0.7-1.1-1.2-1.7-1.8c-0.1-0.4-0.2-0.8-0.2-1.2c0-1,0.1-2,0.1-3C40,50,40,35.6,39.9,21.3
		c0-2.1,0.6-3.2,2.5-4.1c4.5-2,8.9-3.9,13.1-6.5c2-0.6,3.8-1.5,5.5-2.7c4.3-1.6,8.3-3.8,12.4-5.8c1.6-0.8,2-0.6,1.9,1.2
		c-0.1,3.6,0.1,7.2,0.1,10.7c0,1.6,0,3.2,0,4.8c0,14.1-0.1,28.2-0.1,42.2c0,0.2,0.2,0.3,0.4,0.5c4-5.9,6.9-8.7,11.9-11.7
		c9.6-5.7,20-6.7,30.8-5.1c3.5,1,6.9,2.1,10.4,3.1c0.1,0.1,0.2,0.1,0.3,0.2c0,0.3,0.2,0.4,0.5,0.3C132.9,50.2,135.8,52.2,138.2,55
		C138.2,55,138.1,55.1,138.2,55L138.2,55z"/>
	<path class="st0" d="M40.1,92.2c2.3,2.1,4.8,4.2,7.1,6.4c8.2,7.9,17.1,15.1,26.3,21.8c1.3,0.9,1.9,1.8,1.9,3.4c-0.1,10-0.1,20,0,30
		c0,1.7-0.3,2.3-2.2,2.3c-10.4-0.1-20.8-0.1-31.2,0c-1.2,0-2,0-2-1.7c0.1-20.7,0-41.3,0.1-62C40,92.2,40.2,92,40.1,92.2z"/>
	<path class="st1" d="M39.9,67.3c0.1,0.4,0.2,0.8,0.2,1.2c0,7.3,0,14.6,0,22.5c-4.4-4.3-7.9-8.3-11.4-12.5
		C19.4,67.4,10.9,55.8,5,42.4c-2.7-6.2-4.8-12.6-5-19.5C-0.3,8,7.1,0.4,22.1,0c11.8-0.3,23.1,2.5,34.2,6.2c1.6,0.5,3.4,0.8,4.9,1.9
		c-1.7,1.2-3.5,2.1-5.5,2.7c-5.4-2.1-11-3.4-16.7-4C34,6.3,29.1,6.2,24.5,8.6c-3.9,2-6.4,5-6.7,9.5c-0.2,2.4-0.1,4.9,0.5,7.2
		C22.3,40.9,30.3,54.5,39.9,67.3z"/>
	<path class="st1" d="M75.5,19c0-1.6,0-3.2,0-4.8c11.8,5.5,22.7,12.4,33.5,19.7c6.4,4.3,12.7,8.9,19,13.3c0.3,0.2,0.6,0.6,0.8,0.8
		c-3.5-1-6.9-2.1-10.4-3.1c-1.9-2.5-4.8-3.8-7.3-5.5C99.8,31.8,88,24.8,75.5,19z"/>
	<path class="st0" d="M146.8,155.7c-1.8,0.4-3.7,0.4-5.6,0.4c-9,0-17.9-0.1-26.9,0c-1.9,0-2.5-0.5-2.4-2.4c0.2-3,0-5.9,0-9.2
		C123.4,149.8,135,153.1,146.8,155.7C146.9,155.8,146.8,155.7,146.8,155.7z"/>
	<path class="st1" d="M144.2,64.9c-1-2.9-3-5.4-4.3-8.2c4.7,3,8.7,6.9,12.9,10.6c9.1,8,17.6,16.6,25.1,26.1c3.5,4.5,7.1,9,9.8,14.1
		c0.4,0.7,0.7,1.5,0.8,2.3c-3.1-4.2-6-8.4-9.4-12.4C169.1,86,158.1,75.6,146.6,66C145.9,65.4,145.2,64.7,144.2,64.9z"/>
	<path class="st1" d="M146.8,155.7C146.8,155.7,146.9,155.8,146.8,155.7c0.7-1.9,0.4-3.9,0.3-6c0,0-0.1,0-0.1,0
		c6.3,1.5,12.5,3.2,18.9,4.1c4.3,0.6,8.7,1,13,1.6C168.3,159.6,157.6,158.3,146.8,155.7z"/>
	<path class="st2" d="M139.4,56.2c-0.3,0-0.5-0.1-0.5-0.5C139.4,55.6,139.4,56,139.4,56.2z"/>
	<path class="st2" d="M129.6,48.6c-0.3,0.1-0.5,0-0.5-0.3C129.4,48.2,129.6,48.3,129.6,48.6z"/>
	<path class="st2" d="M139.9,56.7c-0.4,0-0.5-0.2-0.5-0.5C139.8,56.2,139.9,56.4,139.9,56.7z"/>
	<polygon class="st2" points="138.2,55 138.1,55.1 138.2,55 138.3,54.9 	"/>
</g>
</svg>
