<?xml version="1.0" encoding="utf-8"?>
<!-- Generator: Adobe Illustrator 22.1.0, SVG Export Plug-In . SVG Version: 6.00 Build 0)  -->
<svg version="1.1" id="Layer_1" xmlns="http://www.w3.org/2000/svg" xmlns:xlink="http://www.w3.org/1999/xlink" x="0px" y="0px"
	 viewBox="0 0 1150.6 166.1" style="enable-background:new 0 0 1150.6 166.1;" xml:space="preserve">
<style type="text/css">
	.st0{fill:#FF5A5F;}
	.st1{fill:#008489;}
	.st2{fill:#058CFD;}
	.st3{font-family:'Ubuntu-Bold';}
	.st4{font-size:175px;}
</style>
<g>
	<path class="st0" d="M145.2,61c0.2,0.2,0.5,0.5,0.7,0.7c0,0.4,0.2,0.4,0.5,0.5c0,0,0,0,0,0c0,0.3,0.2,0.5,0.5,0.5c0,0,0,0,0,0
		c1.3,2.8,3.3,5.2,4.3,8.2c2.1,5.3,3.1,10.8,3.1,16.5c0.1,22.1,0.1,44.1,0.1,66.2c0,0.7,0.1,1.5-0.3,2.2c0,0,0.1,0,0.1,0
		c-11.7-4-22.8-9.6-33.6-15.7c-1.3-0.7-1.6-1.6-1.6-3c0-12.5,0-25,0-37.5c0-2.9-0.5-5.8-1.1-8.6c-1.4-5.9-5-9.5-10.9-10.6
		c-4.3-0.8-8.6-0.9-12.7,0.8c-7,3-9.9,8.9-11.3,15.9c-0.9,4.7-0.5,9.4-0.7,14.2c-1.2,0.2-1.6-0.8-2.3-1.4
		C68.7,99.6,58.2,88.5,48.8,76.3c-0.5-0.7-1.1-1.2-1.7-1.8c-0.1-0.4-0.2-0.8-0.2-1.2c0-1,0.1-2,0.1-3C47,56,47,41.7,46.9,27.4
		c0-2.1,0.6-3.2,2.5-4.1c4.5-2,8.9-3.9,13.1-6.5c2-0.6,3.8-1.5,5.5-2.7c4.3-1.6,8.3-3.8,12.4-5.8c1.6-0.8,2-0.6,1.9,1.2
		c-0.1,3.6,0.1,7.2,0.1,10.7c0,1.6,0,3.2,0,4.8c0,14.1-0.1,28.2-0.1,42.2c0,0.2,0.2,0.3,0.4,0.5c4-5.9,6.9-8.7,11.9-11.7
		c9.6-5.7,20-6.7,30.8-5.1c3.5,1,6.9,2.1,10.4,3.1c0.1,0.1,0.2,0.1,0.3,0.2c0,0.3,0.2,0.4,0.5,0.3C139.8,56.2,142.7,58.3,145.2,61
		C145.2,61,145.1,61.1,145.2,61L145.2,61z"/>
	<path class="st0" d="M47.1,98.2c2.3,2.1,4.8,4.2,7.1,6.4c8.2,7.9,17.1,15.1,26.3,21.8c1.3,0.9,1.9,1.8,1.9,3.4c-0.1,10-0.1,20,0,30
		c0,1.7-0.3,2.3-2.2,2.3c-10.4-0.1-20.8-0.1-31.2,0c-1.2,0-2,0-2-1.7c0.1-20.7,0-41.3,0.1-62C47,98.2,47.1,98,47.1,98.2z"/>
	<path class="st1" d="M46.9,73.3c0.1,0.4,0.2,0.8,0.2,1.2c0,7.3,0,14.6,0,22.5c-4.4-4.3-7.9-8.3-11.4-12.5
		C26.4,73.5,17.9,61.8,12,48.4C9.2,42.2,7.1,35.8,7,29C6.7,14.1,14.1,6.4,29,6c11.8-0.3,23.1,2.5,34.2,6.2c1.6,0.5,3.4,0.8,4.9,1.9
		c-1.7,1.2-3.5,2.1-5.5,2.7c-5.4-2.1-11-3.4-16.7-4c-4.9-0.5-9.8-0.6-14.4,1.7c-3.9,2-6.4,5-6.7,9.5c-0.2,2.4-0.1,4.9,0.5,7.2
		C29.2,46.9,37.3,60.5,46.9,73.3z"/>
	<path class="st1" d="M82.5,25c0-1.6,0-3.2,0-4.8c11.8,5.5,22.7,12.4,33.5,19.7c6.4,4.3,12.7,8.9,19,13.3c0.3,0.2,0.6,0.6,0.8,0.8
		c-3.5-1-6.9-2.1-10.4-3.1c-1.9-2.5-4.8-3.8-7.3-5.5C106.8,37.8,95,30.8,82.5,25z"/>
	<path class="st0" d="M153.8,161.7c-1.8,0.4-3.7,0.4-5.6,0.4c-9,0-17.9-0.1-26.9,0c-1.9,0-2.5-0.5-2.4-2.4c0.2-3,0-5.9,0-9.2
		C130.4,155.8,142,159.1,153.8,161.7C153.9,161.8,153.8,161.7,153.8,161.7z"/>
	<path class="st1" d="M151.2,70.9c-1-2.9-3-5.4-4.3-8.2c4.7,3,8.7,6.9,12.9,10.6c9.1,8,17.6,16.6,25.1,26.1c3.5,4.5,7.1,9,9.8,14.1
		c0.4,0.7,0.7,1.5,0.8,2.3c-3.1-4.2-6-8.4-9.4-12.4C176.1,92,165.1,81.7,153.6,72C152.9,71.4,152.2,70.7,151.2,70.9z"/>
	<path class="st1" d="M153.8,161.7C153.8,161.7,153.9,161.8,153.8,161.7c0.7-1.9,0.4-3.9,0.3-6c0,0-0.1,0-0.1,0
		c6.3,1.5,12.5,3.2,18.9,4.1c4.3,0.6,8.7,1,13,1.6C175.3,165.6,164.6,164.3,153.8,161.7z"/>
	<path class="st2" d="M146.4,62.3c-0.3,0-0.5-0.1-0.5-0.5C146.4,61.6,146.3,62,146.4,62.3z"/>
	<path class="st2" d="M136.6,54.6c-0.3,0.1-0.5,0-0.5-0.3C136.4,54.2,136.6,54.3,136.6,54.6z"/>
	<path class="st2" d="M146.9,62.8c-0.4,0-0.5-0.2-0.5-0.5C146.7,62.3,146.9,62.4,146.9,62.8z"/>
	<polygon class="st2" points="145.2,61 145.1,61.1 145.2,61 145.3,61 	"/>
</g>
<g>
	<path class="st0" d="M683.7,61c0.2,0.2,0.5,0.5,0.7,0.7c0,0.4,0.2,0.4,0.5,0.5c0,0,0,0,0,0c0,0.3,0.2,0.5,0.5,0.5c0,0,0,0,0,0
		c1.3,2.8,3.3,5.2,4.3,8.2c2.1,5.3,3.1,10.8,3.1,16.5c0.1,22.1,0.1,44.1,0.1,66.2c0,0.7,0.1,1.5-0.3,2.2c0,0,0.1,0,0.1,0
		c-11.7-4-22.8-9.6-33.6-15.7c-1.3-0.7-1.6-1.6-1.6-3c0-12.5,0-25,0-37.5c0-2.9-0.5-5.8-1.1-8.6c-1.4-5.9-5-9.5-10.9-10.6
		c-4.3-0.8-8.6-0.9-12.7,0.8c-7,3-9.9,8.9-11.3,15.9c-0.9,4.7-0.5,9.4-0.7,14.2c-1.2,0.2-1.6-0.8-2.3-1.4
		c-11.3-10.3-21.9-21.4-31.2-33.6c-0.5-0.7-1.1-1.2-1.7-1.8c-0.1-0.4-0.2-0.8-0.2-1.2c0-1,0.1-2,0.1-3c0-14.3,0.1-28.6-0.1-42.9
		c0-2.1,0.6-3.2,2.5-4.1c4.5-2,8.9-3.9,13.1-6.5c2-0.6,3.8-1.5,5.5-2.7c4.3-1.6,8.3-3.8,12.4-5.8c1.6-0.8,2-0.6,1.9,1.2
		c-0.1,3.6,0.1,7.2,0.1,10.7c0,1.6,0,3.2,0,4.8c0,14.1-0.1,28.2-0.1,42.2c0,0.2,0.2,0.3,0.4,0.5c4-5.9,6.9-8.7,11.9-11.7
		c9.6-5.7,20-6.7,30.8-5.1c3.5,1,6.9,2.1,10.4,3.1c0.1,0.1,0.2,0.1,0.3,0.2c0,0.3,0.2,0.4,0.5,0.3C678.4,56.2,681.3,58.3,683.7,61
		C683.7,61,683.6,61.1,683.7,61L683.7,61z"/>
	<path class="st0" d="M585.6,98.2c2.3,2.1,4.8,4.2,7.1,6.4c8.2,7.9,17.1,15.1,26.3,21.8c1.3,0.9,1.9,1.8,1.9,3.4
		c-0.1,10-0.1,20,0,30c0,1.7-0.3,2.3-2.2,2.3c-10.4-0.1-20.8-0.1-31.2,0c-1.2,0-2,0-2-1.7c0.1-20.7,0-41.3,0.1-62
		C585.5,98.2,585.7,98,585.6,98.2z"/>
	<path class="st1" d="M585.4,73.3c0.1,0.4,0.2,0.8,0.2,1.2c0,7.3,0,14.6,0,22.5c-4.4-4.3-7.9-8.3-11.4-12.5
		c-9.4-11.1-17.9-22.8-23.8-36.2c-2.7-6.2-4.8-12.6-5-19.5c-0.3-14.9,7.1-22.5,22-22.9c11.8-0.3,23.1,2.5,34.2,6.2
		c1.6,0.5,3.4,0.8,4.9,1.9c-1.7,1.2-3.5,2.1-5.5,2.7c-5.4-2.1-11-3.4-16.7-4c-4.9-0.5-9.8-0.6-14.4,1.7c-3.9,2-6.4,5-6.7,9.5
		c-0.2,2.4-0.1,4.9,0.5,7.2C567.8,46.9,575.8,60.5,585.4,73.3z"/>
	<path class="st1" d="M621,25c0-1.6,0-3.2,0-4.8c11.8,5.5,22.7,12.4,33.5,19.7c6.4,4.3,12.7,8.9,19,13.3c0.3,0.2,0.6,0.6,0.8,0.8
		c-3.5-1-6.9-2.1-10.4-3.1c-1.9-2.5-4.8-3.8-7.3-5.5C645.3,37.8,633.5,30.8,621,25z"/>
	<path class="st0" d="M692.3,161.7c-1.8,0.4-3.7,0.4-5.6,0.4c-9,0-17.9-0.1-26.9,0c-1.9,0-2.5-0.5-2.4-2.4c0.2-3,0-5.9,0-9.2
		C668.9,155.8,680.5,159.1,692.3,161.7C692.4,161.8,692.3,161.7,692.3,161.7z"/>
	<path class="st1" d="M689.7,70.9c-1-2.9-3-5.4-4.3-8.2c4.7,3,8.7,6.9,12.9,10.6c9.1,8,17.6,16.6,25.1,26.1c3.5,4.5,7.1,9,9.8,14.1
		c0.4,0.7,0.7,1.5,0.8,2.3c-3.1-4.2-6-8.4-9.4-12.4C714.6,92,703.6,81.7,692.1,72C691.4,71.4,690.7,70.7,689.7,70.9z"/>
	<path class="st1" d="M692.3,161.7C692.3,161.7,692.4,161.8,692.3,161.7c0.7-1.9,0.4-3.9,0.3-6c0,0-0.1,0-0.1,0
		c6.3,1.5,12.5,3.2,18.9,4.1c4.3,0.6,8.7,1,13,1.6C713.8,165.6,703.1,164.3,692.3,161.7z"/>
	<path class="st2" d="M684.9,62.3c-0.3,0-0.5-0.1-0.5-0.5C684.9,61.6,684.9,62,684.9,62.3z"/>
	<path class="st2" d="M675.1,54.6c-0.3,0.1-0.5,0-0.5-0.3C674.9,54.2,675.1,54.3,675.1,54.6z"/>
	<path class="st2" d="M685.4,62.8c-0.4,0-0.5-0.2-0.5-0.5C685.3,62.3,685.4,62.4,685.4,62.8z"/>
	<polygon class="st2" points="683.7,61 683.6,61.1 683.7,61 683.8,61 	"/>
</g>
<text transform="matrix(1 0 0 1 167.8797 160.2993)" class="st0 st3 st4">ooli</text>
<text transform="matrix(1 0 0 1 706.4362 160.101)" class="st0 st3 st4">omes</text>
</svg>
