<?xml version="1.0" encoding="utf-8"?>
<!-- Generator: Adobe Illustrator 22.1.0, SVG Export Plug-In . SVG Version: 6.00 Build 0)  -->
<svg version="1.1" id="Layer_1" xmlns="http://www.w3.org/2000/svg" xmlns:xlink="http://www.w3.org/1999/xlink" x="0px" y="0px"
	 viewBox="0 0 534.9 512.9" style="enable-background:new 0 0 534.9 512.9;" xml:space="preserve">
<style type="text/css">
	.st0{fill:#FFFFFF;}
	.st1{fill:#FF5A5F;}
</style>
<g>
	<path class="st0" d="M22.1,512.9c0-170.9,0-341.9,0-512.9C193,0,363.9,0,534.9,0c0,170.9,0,341.9,0,512.9
		C364.1,512.9,193.1,512.9,22.1,512.9z M35.5,452.6c1.4,0.1,2.5,0.3,3.6,0.3c57.3,0,114.7,0,172,0c2,0,4.3-0.7,6-1.7
		c11.9-7,23.7-14.3,35.6-21.2c3-1.7,3.7-3.6,3.1-6.9c-5.2-28-10.2-56-15.5-83.9c-0.7-3.9-0.1-6.4,2.9-9.1
		c28.8-26,57.5-52.2,86.3-78.3c0.8-0.7,1.7-1.2,3.5-2.6c-1.1,2.4-1.6,3.6-2.3,4.7c-15.1,27.6-30.1,55.3-45.3,82.8
		c-2.2,3.9-2.4,6.8,0.1,10.8c15.4,25.1,30.3,50.5,45.7,75.7c2.2,3.6,1.8,5.6-1.2,8.3c-6.1,5.7-11.9,11.7-17.7,17.6
		c-1,1-1.8,2.1-3,3.5c53.8,0,106.9,0,160.1,0c0-11.2,0-22.1,0-33.6c-18.7,0-37.1,0-55.7,0c0.3-1.6,0.4-2.6,0.6-3.5
		c6.2-24.7,12.3-49.4,18.7-74c0.8-3.2,0.3-5.3-1.7-7.7c-40.5-50.6-81-101.2-121.3-151.9c-2.2-2.7-3.9-3.2-7.1-1.8
		c-58.4,25-116.9,50-175.4,74.7c-5.7,2.4-8.2,5.7-9.7,11.6c-12.1,49.4-24.6,98.8-36.9,148.1c-0.8,3.4-2.1,4.9-5.9,4.8
		c-11.7-0.3-23.3-0.1-35-0.1c-1.6,0-3.2,0-4.8,0C35.5,430.7,35.5,441.5,35.5,452.6z M180.4,60.9c-0.6,1.7-1,2.8-1.3,3.9
		c-6.6,24.2-13.3,48.4-19.8,72.7c-1,3.7-2.7,5.9-6.3,7.4c-21.8,9.2-43.4,18.6-65.1,28c-10,4.3-18.6,10.5-24.4,19.9
		c-3.5,5.7-5.8,12-3.1,18.5c3.6,8.6,7.9,16.8,12,25.4c2-0.8,3.8-1.4,5.4-2.1c78.6-33.6,157.3-67.1,235.9-100.8
		c3.8-1.6,5.9-1.3,8.7,2c56,67.7,112.1,135.2,168.2,202.7c1.2,1.5,2.6,2.9,4,4.5c6.7-4.6,12.9-9.1,19.3-13.2
		c6.4-4.1,9.1-10,8.9-17.3c-0.3-12.2-5.7-22.4-13.2-31.7c-47-58-94-116-141-173.9c-11-13.6-22-27.1-33.2-40.9
		c-27.9,12-55.6,23.9-84.3,36.3c1.8-8.8,3.4-16.5,5.1-24.6C230.8,72.1,205.8,66.6,180.4,60.9z"/>
	<path class="st1" d="M35.5,452.6c0-11.1,0-21.8,0-33.4c1.6,0,3.2,0,4.8,0c11.7,0,23.3-0.2,35,0.1c3.8,0.1,5.1-1.4,5.9-4.8
		c12.3-49.4,24.8-98.7,36.9-148.1c1.4-5.9,4-9.2,9.7-11.6c58.6-24.7,117-49.7,175.4-74.7c3.2-1.4,4.9-0.9,7.1,1.8
		c40.4,50.7,80.8,101.3,121.3,151.9c1.9,2.4,2.5,4.5,1.7,7.7c-6.4,24.6-12.5,49.3-18.7,74c-0.2,0.9-0.4,1.9-0.6,3.5
		c18.7,0,37,0,55.7,0c0,11.5,0,22.4,0,33.6c-53.3,0-106.4,0-160.1,0c1.2-1.4,2-2.5,3-3.5c5.9-5.9,11.6-12,17.7-17.6
		c3-2.7,3.4-4.7,1.2-8.3c-15.3-25.2-30.3-50.6-45.7-75.7c-2.5-4-2.2-6.9-0.1-10.8c15.2-27.5,30.2-55.2,45.3-82.8
		c0.6-1.1,1.1-2.3,2.3-4.7c-1.8,1.4-2.7,1.9-3.5,2.6c-28.7,26.1-57.4,52.3-86.3,78.3c-3,2.7-3.7,5.2-2.9,9.1
		c5.3,28,10.3,56,15.5,83.9c0.6,3.2-0.1,5.1-3.1,6.9c-12,6.9-23.7,14.2-35.6,21.2c-1.8,1-4,1.7-6,1.7c-57.3,0.1-114.7,0.1-172,0
		C38,452.8,36.9,452.7,35.5,452.6z"/>
	<path class="st1" d="M179.4,60.9c25.6,5.7,50.8,11.2,76.7,16.9c-1.7,8.1-3.3,15.8-5.2,24.6c28.9-12.3,56.9-24.2,85.1-36.3
		c11.3,13.7,22.4,27.3,33.5,40.9C416.9,165,464.4,223,511.8,281c7.6,9.2,13,19.4,13.3,31.7c0.2,7.3-2.6,13.2-9,17.3
		c-6.5,4.2-12.8,8.6-19.5,13.2c-1.4-1.6-2.8-3-4-4.5C436,271.1,379.3,203.5,322.8,135.9c-2.8-3.3-4.9-3.7-8.7-2
		C234.7,167.5,155.3,201,75.9,234.6c-1.7,0.7-3.4,1.3-5.5,2.1c-4.1-8.5-8.4-16.8-12.1-25.4c-2.8-6.5-0.5-12.8,3.1-18.5
		c5.9-9.4,14.6-15.6,24.6-19.9c21.9-9.4,43.8-18.8,65.7-28c3.6-1.5,5.3-3.7,6.3-7.4c6.5-24.3,13.3-48.5,20-72.7
		C178.4,63.7,178.8,62.6,179.4,60.9z"/>
</g>
</svg>
